# xmcd
#
# Track frame offsets:
#	150
#	7043
#	22205
#	39107
#	57945
#	79716
#	95722
#	110227
#	119474
#	134626
#	147494
#	155023
#	170753
#	176478
#	190990
#	204030
#	218378
#	231801
#	241864
#	253771
#	263488
#	284354
#	291389
#	300923
#	314849
#	326644
#	342423
#
# Disc length: 4710 seconds
#
# Revision: 1
# Processed by: cddbd v1.5.2PL0 Copyright (c) Steve Scherf et al.
# Submitted via: audiograbber 1.83.01
#
DISCID=9812641b
DTITLE=Wu-Tang Clan - Wu-Tang vs The Beatles - Enter The Magical Mystery Chambe
DTITLE=rs
DYEAR=2010
DGENRE=Hip-Hop
TTITLE0=Wu Vs Beatles (Intro)
TTITLE1=C.R.E.A.M.
TTITLE2=Got Your Money
TTITLE3=Forget Me Not
TTITLE4=Back In The Game
TTITLE5=Uh Huh
TTITLE6=Criminology
TTITLE7=Da Mystery Of Chessboxin'
TTITLE8=Daytona 500
TTITLE9=Labels
TTITLE10=Smith Bros
TTITLE11=R.E.C. Room
TTITLE12=Wu Vs Beatles (Skit)
TTITLE13=Mighty Healthy
TTITLE14=Clientele Kidd
TTITLE15=Cutting It Up
TTITLE16=Release Yo Self
TTITLE17=City High
TTITLE18=Run
TTITLE19=Cross My Heart
TTITLE20=Uzi (Pinky Ring)
TTITLE21=Bizarre
TTITLE22=Slang Editorial
TTITLE23=Save Me Dear
TTITLE24=The Movement
TTITLE25=Wu Tang Cream Team Line Up
TTITLE26=Wu vs. Beatles (Outro)
EXTD=
EXTT0=
EXTT1=
EXTT2=
EXTT3=
EXTT4=
EXTT5=
EXTT6=
EXTT7=
EXTT8=
EXTT9=
EXTT10=
EXTT11=
EXTT12=
EXTT13=
EXTT14=
EXTT15=
EXTT16=
EXTT17=
EXTT18=
EXTT19=
EXTT20=
EXTT21=
EXTT22=
EXTT23=
EXTT24=
EXTT25=
EXTT26=
PLAYORDER=
